<svg width="34" height="34" viewBox="0 0 34 34" fill="none" xmlns="http://www.w3.org/2000/svg">
<mask id="path-1-inside-1_211_2338" fill="white">
<path d="M20.0116 16.7644C19.844 16.7644 19.6883 16.7184 19.5501 16.6442V16.6462C19.5501 16.9099 19.4476 17.1575 19.2616 17.343C19.0757 17.529 18.8282 17.6315 18.5648 17.6315C18.3948 17.6315 18.2372 17.5843 18.0974 17.5082C18.0833 17.7494 17.9869 17.9749 17.8149 18.1471C17.6289 18.3331 17.3815 18.4355 17.1179 18.4355C16.5942 18.4355 16.169 18.0239 16.1384 17.508C15.9763 17.5956 15.7932 17.6415 15.6042 17.6293C15.0891 17.5956 14.6857 17.1505 14.6857 16.6159V12.1842L14.1811 13.0585C13.9889 13.3928 13.6291 13.6005 13.2417 13.6005C13.053 13.6005 12.8665 13.5509 12.7014 13.4563C12.4957 13.3371 12.3486 13.1457 12.2875 12.9168C12.226 12.6877 12.2578 12.4481 12.3767 12.2427C12.3768 12.2427 14.0277 9.38383 14.1285 9.20822C14.1404 9.18182 14.1745 9.10524 14.2036 9.03997C14.2313 8.97765 14.2551 8.91369 14.2779 8.84941C14.7757 7.44385 16.0085 6.57074 17.4952 6.57074C19.4259 6.57074 20.9966 8.27396 20.9966 10.3675L20.9968 15.779C20.9968 16.0424 20.8945 16.2898 20.7087 16.476C20.5227 16.662 20.2752 16.7645 20.0115 16.7645L20.0116 16.7644ZM17.4953 7.09429C16.2177 7.09429 15.1995 7.81588 14.7713 9.0245C14.7439 9.10124 14.7154 9.17799 14.6821 9.25277C14.5855 9.46941 14.5855 9.46941 14.5583 9.50056L14.5547 9.49745C14.4199 9.7518 14.0194 10.4453 12.83 12.5048C12.7811 12.5892 12.7682 12.6873 12.7931 12.7811C12.8183 12.8749 12.8789 12.9539 12.9627 13.0023C13.2228 13.1517 13.579 13.0553 13.7272 12.797L14.7208 11.0767C14.7802 10.9742 14.9002 10.9238 15.0154 10.955C15.1298 10.9857 15.2094 11.0895 15.2094 11.2079V16.616C15.2094 16.8712 15.4019 17.0914 15.6385 17.107C15.775 17.1142 15.9022 17.0685 15.9978 16.973C16.0848 16.8861 16.1327 16.7703 16.1327 16.6465V13.1095C16.1327 12.9649 16.2499 12.8476 16.3945 12.8476C16.5392 12.8476 16.6564 12.9647 16.6564 13.1095L16.6563 17.4505C16.6563 17.705 16.8634 17.9121 17.1179 17.9121C17.2416 17.9121 17.3577 17.8642 17.4448 17.7773C17.5317 17.6902 17.5796 17.5741 17.5796 17.4505V13.1095C17.5796 12.9649 17.6966 12.8476 17.8415 12.8476C17.9861 12.8476 18.1033 12.9647 18.1033 13.1095L18.1032 16.6058V16.6465C18.1032 16.9008 18.3103 17.108 18.565 17.108C18.6885 17.108 18.8043 17.0599 18.8918 16.9727C18.9787 16.8859 19.0266 16.7701 19.0266 16.6463V13.1093C19.0266 12.9647 19.1437 12.8474 19.2885 12.8474C19.4332 12.8474 19.5504 12.9645 19.5504 13.1093L19.5501 15.7791C19.5501 16.0338 19.7572 16.2409 20.0116 16.2409C20.1354 16.2409 20.2512 16.1929 20.3381 16.1061C20.4253 16.0189 20.473 15.9028 20.473 15.7791L20.4732 10.3676C20.4732 8.56292 19.1373 7.09434 17.4952 7.09434L17.4953 7.09429Z"/>
</mask>
<path d="M20.0116 16.7644C19.844 16.7644 19.6883 16.7184 19.5501 16.6442V16.6462C19.5501 16.9099 19.4476 17.1575 19.2616 17.343C19.0757 17.529 18.8282 17.6315 18.5648 17.6315C18.3948 17.6315 18.2372 17.5843 18.0974 17.5082C18.0833 17.7494 17.9869 17.9749 17.8149 18.1471C17.6289 18.3331 17.3815 18.4355 17.1179 18.4355C16.5942 18.4355 16.169 18.0239 16.1384 17.508C15.9763 17.5956 15.7932 17.6415 15.6042 17.6293C15.0891 17.5956 14.6857 17.1505 14.6857 16.6159V12.1842L14.1811 13.0585C13.9889 13.3928 13.6291 13.6005 13.2417 13.6005C13.053 13.6005 12.8665 13.5509 12.7014 13.4563C12.4957 13.3371 12.3486 13.1457 12.2875 12.9168C12.226 12.6877 12.2578 12.4481 12.3767 12.2427C12.3768 12.2427 14.0277 9.38383 14.1285 9.20822C14.1404 9.18182 14.1745 9.10524 14.2036 9.03997C14.2313 8.97765 14.2551 8.91369 14.2779 8.84941C14.7757 7.44385 16.0085 6.57074 17.4952 6.57074C19.4259 6.57074 20.9966 8.27396 20.9966 10.3675L20.9968 15.779C20.9968 16.0424 20.8945 16.2898 20.7087 16.476C20.5227 16.662 20.2752 16.7645 20.0115 16.7645L20.0116 16.7644ZM17.4953 7.09429C16.2177 7.09429 15.1995 7.81588 14.7713 9.0245C14.7439 9.10124 14.7154 9.17799 14.6821 9.25277C14.5855 9.46941 14.5855 9.46941 14.5583 9.50056L14.5547 9.49745C14.4199 9.7518 14.0194 10.4453 12.83 12.5048C12.7811 12.5892 12.7682 12.6873 12.7931 12.7811C12.8183 12.8749 12.8789 12.9539 12.9627 13.0023C13.2228 13.1517 13.579 13.0553 13.7272 12.797L14.7208 11.0767C14.7802 10.9742 14.9002 10.9238 15.0154 10.955C15.1298 10.9857 15.2094 11.0895 15.2094 11.2079V16.616C15.2094 16.8712 15.4019 17.0914 15.6385 17.107C15.775 17.1142 15.9022 17.0685 15.9978 16.973C16.0848 16.8861 16.1327 16.7703 16.1327 16.6465V13.1095C16.1327 12.9649 16.2499 12.8476 16.3945 12.8476C16.5392 12.8476 16.6564 12.9647 16.6564 13.1095L16.6563 17.4505C16.6563 17.705 16.8634 17.9121 17.1179 17.9121C17.2416 17.9121 17.3577 17.8642 17.4448 17.7773C17.5317 17.6902 17.5796 17.5741 17.5796 17.4505V13.1095C17.5796 12.9649 17.6966 12.8476 17.8415 12.8476C17.9861 12.8476 18.1033 12.9647 18.1033 13.1095L18.1032 16.6058V16.6465C18.1032 16.9008 18.3103 17.108 18.565 17.108C18.6885 17.108 18.8043 17.0599 18.8918 16.9727C18.9787 16.8859 19.0266 16.7701 19.0266 16.6463V13.1093C19.0266 12.9647 19.1437 12.8474 19.2885 12.8474C19.4332 12.8474 19.5504 12.9645 19.5504 13.1093L19.5501 15.7791C19.5501 16.0338 19.7572 16.2409 20.0116 16.2409C20.1354 16.2409 20.2512 16.1929 20.3381 16.1061C20.4253 16.0189 20.473 15.9028 20.473 15.7791L20.4732 10.3676C20.4732 8.56292 19.1373 7.09434 17.4952 7.09434L17.4953 7.09429Z" fill="#4CAF4F"/>
<path d="M20.0116 16.7644V15.8363H23.2906L20.498 17.5549L20.0116 16.7644ZM19.5501 16.6442H18.622V15.0935L19.9887 15.8263L19.5501 16.6442ZM19.2616 17.343L18.6054 16.6868L18.6063 16.6859L19.2616 17.343ZM18.0974 17.5082L17.1709 17.454L17.2563 15.9933L18.5413 16.6931L18.0974 17.5082ZM17.8149 18.1471L18.4715 18.803L18.4711 18.8033L17.8149 18.1471ZM16.1384 17.508L15.6971 16.6915L16.9785 15.999L17.0648 17.453L16.1384 17.508ZM15.6042 17.6293L15.5447 18.5555L15.5435 18.5555L15.6042 17.6293ZM14.6857 12.1842L13.8819 11.7203L15.6138 8.71985V12.1842H14.6857ZM14.1811 13.0585L13.3764 12.596L13.3773 12.5945L14.1811 13.0585ZM12.7014 13.4563L12.24 14.2616L12.2359 14.2592L12.7014 13.4563ZM12.2875 12.9168L13.1838 12.6761L13.1841 12.6772L12.2875 12.9168ZM12.3767 12.2427L11.5735 11.7777L11.8416 11.3146H12.3767V12.2427ZM14.1285 9.20822L14.9737 9.59148L14.9555 9.63167L14.9335 9.66995L14.1285 9.20822ZM14.2036 9.03997L13.3556 8.66284L13.3556 8.66283L14.2036 9.03997ZM14.2779 8.84941L15.1527 9.15928L15.1526 9.15953L14.2779 8.84941ZM20.9966 10.3675L20.0685 10.3675V10.3675H20.9966ZM20.9968 15.779L21.9249 15.779V15.779H20.9968ZM20.7087 16.476L21.3655 17.1316L21.3649 17.1323L20.7087 16.476ZM20.0115 16.7645V17.6926H16.7326L19.5251 15.974L20.0115 16.7645ZM17.4953 7.09429V6.16619H18.7257L18.3876 7.34925L17.4953 7.09429ZM14.7713 9.0245L15.6461 9.33442L15.6454 9.33641L14.7713 9.0245ZM14.6821 9.25277L15.53 9.63023L15.5298 9.63072L14.6821 9.25277ZM14.5583 9.50056L15.2572 10.1112L14.6501 10.8061L13.9517 10.203L14.5583 9.50056ZM14.5547 9.49745L13.7346 9.06285L14.28 8.03389L15.1613 8.79505L14.5547 9.49745ZM12.83 12.5048L13.6337 12.9689L13.6333 12.9696L12.83 12.5048ZM12.7931 12.7811L11.8969 13.0224L11.8961 13.0195L12.7931 12.7811ZM12.9627 13.0023L12.5004 13.8071L12.4987 13.8061L12.9627 13.0023ZM13.7272 12.797L12.9223 12.335L12.9235 12.3328L13.7272 12.797ZM14.7208 11.0767L13.9172 10.6125L13.9177 10.6115L14.7208 11.0767ZM15.0154 10.955L14.7752 11.8515L14.7729 11.8509L15.0154 10.955ZM15.6385 17.107L15.5895 18.0339L15.5776 18.0331L15.6385 17.107ZM15.9978 16.973L16.6541 17.6293L16.6535 17.6298L15.9978 16.973ZM16.6564 13.1095H17.5845V13.1095L16.6564 13.1095ZM16.6563 17.4505H15.7282V17.4504L16.6563 17.4505ZM17.4448 17.7773L18.1016 18.4329L18.1004 18.4342L17.4448 17.7773ZM18.1033 13.1095H19.0314V13.1096L18.1033 13.1095ZM18.1032 16.6058H17.1751V16.6058L18.1032 16.6058ZM18.8918 16.9727L19.5475 17.6295L19.5469 17.6301L18.8918 16.9727ZM19.5504 13.1093H20.4785V13.1094L19.5504 13.1093ZM19.5501 15.7791H18.622V15.779L19.5501 15.7791ZM20.3381 16.1061L20.9943 16.7624L20.9937 16.763L20.3381 16.1061ZM20.473 15.7791H19.5449V15.7791L20.473 15.7791ZM20.4732 10.3676H21.4013V10.3677L20.4732 10.3676ZM17.4952 7.09434V8.02243H16.2648L16.6029 6.83937L17.4952 7.09434ZM20.0116 17.6925C19.6698 17.6925 19.3647 17.5979 19.1115 17.4622L19.9887 15.8263C20.0007 15.8327 20.0083 15.8352 20.0113 15.836C20.0139 15.8367 20.0136 15.8363 20.0116 15.8363V17.6925ZM20.4782 16.6442V16.6462H18.622V16.6442H20.4782ZM20.4782 16.6462C20.4782 17.1553 20.2784 17.6397 19.917 18.0001L18.6063 16.6859C18.6129 16.6793 18.6162 16.6736 18.6181 16.669C18.62 16.6643 18.622 16.6572 18.622 16.6462H20.4782ZM19.9179 17.9993C19.5577 18.3594 19.0742 18.5596 18.5648 18.5596V16.7034C18.5755 16.7034 18.5825 16.7015 18.5872 16.6995C18.592 16.6975 18.5981 16.694 18.6054 16.6868L19.9179 17.9993ZM18.5648 18.5596C18.2186 18.5596 17.9097 18.4627 17.6536 18.3232L18.5413 16.6931C18.5534 16.6997 18.561 16.7022 18.5641 16.703C18.5667 16.7037 18.5665 16.7034 18.5648 16.7034V18.5596ZM19.0239 17.5623C18.9972 18.0191 18.8119 18.4622 18.4715 18.803L17.1583 17.4912C17.1617 17.4877 17.1637 17.4847 17.1654 17.4808C17.1672 17.4767 17.1701 17.4682 17.1709 17.454L19.0239 17.5623ZM18.4711 18.8033C18.1109 19.1636 17.6273 19.3636 17.1179 19.3636V17.5075C17.1287 17.5075 17.1358 17.5055 17.1405 17.5035C17.1452 17.5016 17.1514 17.4981 17.1586 17.4908L18.4711 18.8033ZM17.1179 19.3636C16.0933 19.3636 15.2711 18.5595 15.2119 17.563L17.0648 17.453C17.0658 17.4688 17.0722 17.4826 17.0836 17.4935C17.0892 17.4988 17.0949 17.5022 17.0998 17.5042C17.1041 17.506 17.1096 17.5075 17.1179 17.5075V19.3636ZM16.5796 18.3245C16.2799 18.4865 15.9244 18.5799 15.5447 18.5555L15.6637 16.7032C15.6637 16.7032 15.6657 16.7034 15.6706 16.7022C15.6759 16.701 15.6849 16.6981 15.6971 16.6915L16.5796 18.3245ZM15.5435 18.5555C14.513 18.4879 13.7576 17.6115 13.7576 16.6159H15.6138C15.6138 16.6472 15.6252 16.6714 15.6395 16.6872C15.6534 16.7025 15.6628 16.7031 15.665 16.7032L15.5435 18.5555ZM13.7576 16.6159V12.1842H15.6138V16.6159H13.7576ZM15.4895 12.6482L14.9849 13.5224L13.3773 12.5945L13.8819 11.7203L15.4895 12.6482ZM14.9857 13.521C14.6271 14.1449 13.9596 14.5285 13.2417 14.5285V12.6724C13.2986 12.6724 13.3507 12.6408 13.3764 12.596L14.9857 13.521ZM13.2417 14.5285C12.8908 14.5285 12.5453 14.4365 12.24 14.2616L13.1628 12.651C13.1878 12.6653 13.2152 12.6724 13.2417 12.6724V14.5285ZM12.2359 14.2592C11.8192 14.0177 11.5159 13.6245 11.3908 13.1563L13.1841 12.6772C13.1833 12.674 13.1809 12.6684 13.1765 12.6626C13.172 12.6568 13.1679 12.654 13.1669 12.6534L12.2359 14.2592ZM11.3911 13.1574C11.2655 12.6895 11.3313 12.196 11.5735 11.7777L13.1798 12.7078C13.1812 12.7055 13.1835 12.7002 13.1845 12.6927C13.1855 12.6852 13.1846 12.6792 13.1838 12.6761L11.3911 13.1574ZM12.3767 11.3146C11.9214 11.434 11.5806 11.7656 11.5781 11.7698C11.5772 11.7713 11.576 11.7734 11.5756 11.7741C11.5754 11.7745 11.575 11.7752 11.5748 11.7754C11.5747 11.7755 11.5746 11.7758 11.5745 11.7759C11.5744 11.7761 11.5744 11.7761 11.5748 11.7755C11.5754 11.7744 11.5765 11.7725 11.578 11.7699C11.5811 11.7646 11.5856 11.7567 11.5917 11.7462C11.6038 11.7253 11.6215 11.6946 11.6442 11.6553C11.6895 11.5768 11.7544 11.4645 11.8326 11.3291C11.9889 11.0584 12.1985 10.6956 12.4111 10.3273C12.8371 9.58941 13.2739 8.83275 13.3234 8.74649L14.9335 9.66995C14.8823 9.7593 14.4433 10.5199 14.0186 11.2554C13.8059 11.6238 13.5964 11.9866 13.44 12.2574C13.3618 12.3928 13.2969 12.5052 13.2515 12.5838C13.2288 12.623 13.211 12.6539 13.1988 12.6749C13.1928 12.6855 13.188 12.6936 13.1848 12.6992C13.1832 12.7019 13.1819 12.7042 13.181 12.7059C13.1805 12.7066 13.18 12.7076 13.1794 12.7085C13.1792 12.7088 13.1786 12.7099 13.1779 12.7111C13.1775 12.7119 13.1762 12.7141 13.1753 12.7156C13.1727 12.7199 12.8319 13.0515 12.3767 13.1708V11.3146ZM13.2832 8.82496C13.2934 8.80243 13.3258 8.72979 13.3556 8.66284L15.0516 9.41709C15.0233 9.48069 14.9874 9.56121 14.9737 9.59148L13.2832 8.82496ZM13.3556 8.66283C13.3685 8.63382 13.3827 8.59676 13.4031 8.53928L15.1526 9.15953C15.1274 9.23062 15.0941 9.32147 15.0516 9.4171L13.3556 8.66283ZM13.403 8.53953C14.0316 6.76491 15.6138 5.64265 17.4952 5.64265V7.49884C16.4032 7.49884 15.5198 8.12278 15.1527 9.15928L13.403 8.53953ZM17.4952 5.64265C20.0078 5.64265 21.9247 7.83359 21.9247 10.3675H20.0685C20.0685 8.71432 18.844 7.49884 17.4952 7.49884V5.64265ZM21.9247 10.3675L21.9249 15.779L20.0687 15.779L20.0685 10.3675L21.9247 10.3675ZM21.9249 15.779C21.9249 16.288 21.7252 16.7713 21.3655 17.1316L20.0518 15.8203C20.0591 15.813 20.0627 15.8067 20.0647 15.8019C20.0667 15.797 20.0687 15.7898 20.0687 15.779H21.9249ZM21.3649 17.1323C21.0046 17.4925 20.521 17.6926 20.0115 17.6926V15.8364C20.0225 15.8364 20.0296 15.8344 20.0343 15.8324C20.039 15.8305 20.0452 15.827 20.0524 15.8197L21.3649 17.1323ZM19.5251 15.974L19.5252 15.974L20.498 17.5549L20.498 17.5549L19.5251 15.974ZM17.4953 8.02238C16.6128 8.02238 15.9437 8.49442 15.6461 9.33442L13.8965 8.71458C14.4553 7.13733 15.8226 6.16619 17.4953 6.16619V8.02238ZM15.6454 9.33641C15.6161 9.41851 15.5781 9.5222 15.53 9.63023L13.8342 8.87532C13.8527 8.83379 13.8717 8.78398 13.8972 8.71258L15.6454 9.33641ZM15.5298 9.63072C15.4873 9.72604 15.4517 9.80654 15.4244 9.86107C15.4075 9.89491 15.3801 9.94707 15.3404 10.0048C15.3002 10.0634 15.2604 10.1075 15.2572 10.1112L13.8594 8.88991C13.8616 8.88742 13.8609 8.88823 13.8598 8.8895C13.8584 8.89115 13.8547 8.89536 13.85 8.90113C13.8451 8.9071 13.8389 8.91482 13.832 8.924C13.825 8.93326 13.8178 8.94311 13.8107 8.9535C13.7961 8.97466 13.7849 8.99319 13.777 9.0072C13.7695 9.02029 13.765 9.02934 13.764 9.03138C13.7629 9.03349 13.7636 9.03225 13.7667 9.0255C13.7698 9.01895 13.7741 9.00953 13.7803 8.99582C13.7865 8.98222 13.7939 8.9658 13.8029 8.94551C13.812 8.92525 13.8223 8.90204 13.8345 8.87483L15.5298 9.63072ZM13.9517 10.203L13.9481 10.1999L15.1613 8.79505L15.1649 8.79816L13.9517 10.203ZM15.3747 9.93205C15.2295 10.2061 14.8148 10.9239 13.6337 12.9689L12.0263 12.0406C13.224 9.96678 13.6103 9.29747 13.7346 9.06285L15.3747 9.93205ZM13.6333 12.9696C13.7075 12.8413 13.7282 12.6864 13.69 12.5427L11.8961 13.0195C11.8081 12.6881 11.8547 12.3372 12.0267 12.0399L13.6333 12.9696ZM13.6893 12.5398C13.6511 12.398 13.5572 12.2739 13.4267 12.1985L12.4987 13.8061C12.2005 13.634 11.9856 13.3518 11.8969 13.0224L13.6893 12.5398ZM13.4249 12.1975C13.3193 12.1368 13.2165 12.1372 13.1456 12.1563C13.0749 12.1754 12.9843 12.2269 12.9223 12.335L14.5321 13.259C14.1277 13.9637 13.2033 14.2108 12.5004 13.8071L13.4249 12.1975ZM12.9235 12.3328L13.9172 10.6125L15.5245 11.5409L14.5309 13.2612L12.9235 12.3328ZM13.9177 10.6115C14.1858 10.1487 14.733 9.91708 15.2578 10.0591L14.7729 11.8509C15.0675 11.9306 15.3746 11.7997 15.5239 11.5419L13.9177 10.6115ZM15.2555 10.0585C15.7762 10.198 16.1375 10.6699 16.1375 11.2079H14.2813C14.2813 11.5091 14.4834 11.7733 14.7752 11.8515L15.2555 10.0585ZM16.1375 11.2079V16.616H14.2813V11.2079H16.1375ZM16.1375 16.616C16.1375 16.5103 16.0983 16.4141 16.034 16.3405C15.9697 16.2671 15.8564 16.1912 15.6995 16.1809L15.5776 18.0331C14.7963 17.9817 14.2813 17.3011 14.2813 16.616H16.1375ZM15.6876 16.1802C15.5779 16.1744 15.444 16.2146 15.3422 16.3162L16.6535 17.6298C16.3605 17.9223 15.9721 18.054 15.5895 18.0338L15.6876 16.1802ZM15.3416 16.3167C15.2535 16.4048 15.2046 16.5255 15.2046 16.6465H17.0607C17.0607 17.0151 16.916 17.3674 16.6541 17.6293L15.3416 16.3167ZM15.2046 16.6465V13.1095H17.0607V16.6465H15.2046ZM15.2046 13.1095C15.2046 12.4523 15.7373 11.9195 16.3945 11.9195V13.7757C16.7625 13.7757 17.0607 13.4774 17.0607 13.1095H15.2046ZM16.3945 11.9195C17.0514 11.9195 17.5845 12.4518 17.5845 13.1095H15.7284C15.7284 13.4777 16.027 13.7757 16.3945 13.7757V11.9195ZM17.5845 13.1095L17.5844 17.4505L15.7282 17.4504L15.7284 13.1095L17.5845 13.1095ZM17.5844 17.4505C17.5844 17.1924 17.376 16.984 17.1179 16.984V18.8402C16.3508 18.8402 15.7282 18.2176 15.7282 17.4505H17.5844ZM17.1179 16.984C16.9971 16.984 16.877 17.0327 16.7891 17.1204L18.1004 18.4342C17.8383 18.6957 17.486 18.8402 17.1179 18.8402V16.984ZM16.7879 17.1217C16.7001 17.2096 16.6515 17.3297 16.6515 17.4505H18.5076C18.5076 17.8185 18.3632 18.1709 18.1016 18.4329L16.7879 17.1217ZM16.6515 17.4505V13.1095H18.5076V17.4505H16.6515ZM16.6515 13.1095C16.6515 12.4527 17.1837 11.9195 17.8415 11.9195V13.7757C18.2096 13.7757 18.5076 13.4771 18.5076 13.1095H16.6515ZM17.8415 11.9195C18.4983 11.9195 19.0314 12.4518 19.0314 13.1095H17.1753C17.1753 13.4777 17.4739 13.7757 17.8415 13.7757V11.9195ZM19.0314 13.1096L19.0313 16.6059L17.1751 16.6058L17.1753 13.1095L19.0314 13.1096ZM19.0313 16.6058V16.6465H17.1751V16.6058H19.0313ZM19.0313 16.6465C19.0313 16.3878 18.8224 16.1799 18.565 16.1799V18.036C17.7982 18.036 17.1751 17.4139 17.1751 16.6465H19.0313ZM18.565 16.1799C18.4417 16.1799 18.3223 16.23 18.2368 16.3152L19.5469 17.6301C19.2862 17.8898 18.9353 18.036 18.565 18.036V16.1799ZM18.2362 16.3158C18.1474 16.4044 18.0985 16.5255 18.0985 16.6463H19.9547C19.9547 17.0148 19.8101 17.3674 19.5475 17.6295L18.2362 16.3158ZM18.0985 16.6463V13.1093H19.9547V16.6463H18.0985ZM18.0985 13.1093C18.0985 12.4525 18.6308 11.9193 19.2885 11.9193V13.7755C19.6567 13.7755 19.9547 13.4769 19.9547 13.1093H18.0985ZM19.2885 11.9193C19.9454 11.9193 20.4785 12.4516 20.4785 13.1093H18.6223C18.6223 13.4775 18.921 13.7755 19.2885 13.7755V11.9193ZM20.4785 13.1094L20.4782 15.7792L18.622 15.779L18.6223 13.1092L20.4785 13.1094ZM20.4782 15.7791C20.4782 15.5217 20.2702 15.3128 20.0116 15.3128V17.169C19.2442 17.169 18.622 16.5459 18.622 15.7791H20.4782ZM20.0116 15.3128C19.8898 15.3128 19.7697 15.3621 19.6824 15.4493L20.9937 16.763C20.7326 17.0236 20.3809 17.169 20.0116 17.169V15.3128ZM19.6818 15.4499C19.5934 15.5383 19.5449 15.6589 19.5449 15.7791H21.4011C21.4011 16.1467 21.2572 16.4995 20.9943 16.7624L19.6818 15.4499ZM19.5449 15.7791L19.5451 10.3676L21.4013 10.3677L21.4011 15.7792L19.5449 15.7791ZM19.5451 10.3676C19.5451 8.99091 18.5441 8.02243 17.4952 8.02243V6.16625C19.7306 6.16625 21.4013 8.13493 21.4013 10.3676H19.5451ZM16.6029 6.83937L16.6029 6.83932L18.3876 7.34925L18.3876 7.34931L16.6029 6.83937Z" fill="#4CAF4F" mask="url(#path-1-inside-1_211_2338)"/>
<path d="M11.529 21.7394C11.4047 21.8141 11.244 21.7738 11.1697 21.6497C11.0952 21.5257 11.1356 21.3648 11.2594 21.2904M11.529 21.7394L13.7916 18.6948C14.0102 18.5635 14.2985 18.6153 14.4333 18.8103M11.529 21.7394L14.5619 19.9199H14.562L14.5624 19.9197M11.529 21.7394L15.7264 20.298C15.8323 20.2344 15.9071 20.1337 15.9369 20.0142M11.2594 21.2904L14.2924 19.4708C14.3984 19.4072 14.4733 19.3064 14.5031 19.1871M11.2594 21.2904L11.2901 21.3415L11.3941 21.5149L11.3943 21.5152L11.4412 21.5934L11.4981 21.6883L11.4982 21.6882L11.4983 21.6882L11.4985 21.688M11.2594 21.2904L11.2901 21.3415M14.5031 19.1871C14.5359 19.0563 14.511 18.9225 14.4333 18.8103M14.5031 19.1871L14.578 19.2059L14.5709 19.052C14.5659 18.9461 14.535 18.8521 14.4825 18.7766L14.4824 18.7763L14.4333 18.8103M14.5031 19.1871L14.578 19.2059L14.5854 19.3647L14.4336 19.4558H14.4333L14.3231 19.5219L14.3231 19.5219L14.3231 19.522L11.2903 21.3414M14.4333 18.8103L14.4824 18.7763L12.243 22.9288C12.3383 22.8715 12.3698 22.7476 12.312 22.6515C12.2548 22.5561 12.1305 22.5248 12.0348 22.5822L15.0677 20.7628C15.1374 20.7209 15.2104 20.6893 15.285 20.6676L15.7554 20.3464L15.7554 20.3464L15.7813 20.3287C15.8917 20.2533 15.9647 20.1489 15.9947 20.0287L15.9947 20.0286L15.9369 20.0142M11.2903 21.3414C11.3857 21.2844 11.5099 21.3153 11.5675 21.4108C11.5676 21.411 11.5678 21.4112 11.5679 21.4114C11.6251 21.5074 11.5935 21.6309 11.4985 21.688M11.2903 21.3414C11.2902 21.3415 11.2902 21.3415 11.2901 21.3415M11.2903 21.3414L11.2901 21.3415M11.4985 21.688L14.5311 19.8688L14.5312 19.8688L14.5314 19.8687C14.5314 19.8686 14.5315 19.8685 14.5316 19.8685L14.5619 19.9189L14.562 19.9191L14.5624 19.9197M11.4985 21.688L11.3945 21.5151L11.3943 21.5148L11.3591 21.4563L11.2901 21.3415M14.5624 19.9197V19.8492C14.6209 19.8109 14.6744 19.7665 14.7222 19.7169L15.2215 19.4563L15.2215 19.4563L15.2491 19.4419C15.3294 19.4 15.4103 19.3804 15.4872 19.3804C15.5287 19.3804 15.5716 19.3855 15.6153 19.3964C15.6153 19.3964 15.6153 19.3964 15.6154 19.3964C15.6155 19.3964 15.6157 19.3965 15.6158 19.3965L15.7135 19.0041M14.5624 19.9197L15.2514 19.5063C15.3571 19.443 15.4807 19.4244 15.6009 19.4543C15.7205 19.4841 15.8213 19.5589 15.8848 19.6647C15.9482 19.7706 15.9668 19.8948 15.9369 20.0142M15.7135 19.0041C15.7135 19.0041 15.7135 19.0041 15.7135 19.0041M15.7135 19.0041C15.9526 19.0639 16.156 19.2148 16.2826 19.4258L16.3337 19.3952M15.7135 19.0041L15.7279 18.9462M15.7135 19.0041L15.6154 19.3964C15.7512 19.4303 15.8637 19.5137 15.9357 19.6338C15.9358 19.6339 15.9358 19.634 15.9359 19.634C15.9359 19.634 15.9359 19.6341 15.9359 19.6341C16.0081 19.7548 16.0286 19.8932 15.9947 20.0284L15.9947 20.0286L15.9369 20.0142M15.7135 19.0041C15.7134 19.0041 15.7134 19.0041 15.7133 19.0041L15.7127 19.0039C15.641 18.9861 15.5684 18.977 15.4961 18.9764M15.7135 19.0041L15.7279 18.9462M15.2758 21.1094L15.5375 20.9525L15.8072 21.1116C15.888 21.1593 15.949 21.2189 15.9903 21.2879L15.9905 21.2882C15.9905 21.2882 15.9906 21.2883 15.9906 21.2884L15.9397 21.319M15.2758 21.1094L16.0497 21.683C16.0834 21.5473 16.0628 21.409 15.9906 21.2884L15.9397 21.319M15.2758 21.1094L15.3065 21.1606M15.2758 21.1094L15.2758 21.1094L15.3065 21.1606M15.9397 21.319C15.8087 21.1007 15.5245 21.0297 15.3065 21.1606M15.9397 21.319C16.0033 21.4248 16.0219 21.5491 15.992 21.6686L15.3065 21.1606M16.3819 21.0387C16.3841 21.0423 16.3863 21.0459 16.3885 21.0496L16.3819 21.0387ZM16.3819 21.0387C16.3662 21.0509 16.3503 21.0629 16.3341 21.0745C16.3352 21.0763 16.3363 21.078 16.3374 21.0798L16.3819 21.0387ZM16.3097 20.331C16.3431 20.2669 16.3692 20.1984 16.3871 20.1267L16.3097 20.331ZM16.3097 20.331C16.3263 20.3413 16.3428 20.352 16.3592 20.3631C16.3964 20.2938 16.4253 20.2195 16.4449 20.141C16.5087 19.886 16.4692 19.6212 16.3337 19.3952M16.3097 20.331L16.3871 20.1266C16.4469 19.8875 16.4092 19.6372 16.2829 19.4262L16.2827 19.4259C16.2827 19.4259 16.2827 19.4259 16.2826 19.4258L16.3337 19.3952M16.3337 19.3952C16.1984 19.1696 15.9833 19.01 15.7279 18.9462M15.7279 18.9462L15.4909 18.9164M15.4909 18.9164C15.493 18.9364 15.4947 18.9564 15.4961 18.9764M15.4909 18.9164C15.4896 18.9164 15.4884 18.9163 15.4872 18.9163C15.3302 18.9163 15.1761 18.9565 15.0344 19.0305M15.4909 18.9164L15.0344 19.0305M15.4961 18.9764C15.4968 18.9872 15.4974 18.9981 15.498 19.009L15.4872 19.0095L15.1991 19.0228M15.4961 18.9764C15.4931 18.9763 15.4901 18.9763 15.4872 18.9763C15.3893 18.9764 15.2921 18.9921 15.1991 19.0228M15.1991 19.0228L15.0344 19.0305M15.1991 19.0228C15.1518 19.0385 15.1056 19.058 15.0609 19.0813C15.0447 19.0898 15.0287 19.0988 15.0129 19.1082L15.0127 19.1083L14.9797 19.1281M15.0344 19.0305L14.7699 19.254L14.77 19.2539L14.9533 19.2998C14.9533 19.2999 14.9533 19.2999 14.9533 19.3C14.9676 19.2429 14.9763 19.1854 14.9797 19.1281M15.0344 19.0305L14.9636 18.8948M15.0344 19.0305C15.0271 18.8724 14.9854 18.7167 14.9054 18.5777C14.8872 18.5858 14.8692 18.5943 14.8513 18.6031M14.9797 19.1281C14.9816 19.0963 14.9818 19.0646 14.9804 19.033C14.9783 18.9864 14.9727 18.9403 14.9636 18.8948M14.9797 19.1281L14.9636 18.8948M14.9636 18.8948L14.8197 18.6191C14.8302 18.6136 14.8407 18.6083 14.8513 18.6031M14.9636 18.8948L14.8148 18.5461C14.8277 18.5647 14.8399 18.5837 14.8513 18.6031M14.9636 18.8948C14.9432 18.7927 14.9054 18.6943 14.8513 18.6031M16.043 20.7119L16.1223 20.5774C16.0879 20.6096 16.051 20.6392 16.0117 20.6661C15.9966 20.6764 15.9811 20.6863 15.9653 20.6958L15.9651 20.696L15.9315 20.7161L16.043 20.7119ZM8.63216 18.5523L8.5794 18.5245C8.5697 18.542 8.54556 18.5855 8.50989 18.6497C8.50106 18.6657 8.49152 18.6828 8.48132 18.7012C8.4995 18.7103 8.51784 18.7182 8.53622 18.7252C8.56759 18.6686 8.59957 18.611 8.63216 18.5523ZM12.7791 23.8229C12.7791 23.823 12.779 23.823 12.779 23.823L12.7791 23.8229Z" fill="#4CAF4F" stroke="#4CAF4F" stroke-width="0.928093"/>
<path d="M24.4811 19.3884L24.4811 19.3885L24.4811 19.3884ZM24.4811 19.3884C24.3839 19.2143 24.3878 18.9998 24.4908 18.8281L24.4811 19.3884ZM18.7395 18.9762C18.667 18.9768 18.5941 18.986 18.5222 19.004L18.7395 18.9762ZM18.7395 18.9762C18.7409 18.9562 18.7426 18.9363 18.7448 18.9163L18.7395 18.9762ZM24.0635 19.7139L24.0241 19.6429L24.0635 19.7139ZM22.9453 21.3414C22.9452 21.3413 22.9451 21.3413 22.945 21.3412L22.9452 21.3413L22.9453 21.3414ZM21.4565 23.8234C21.4564 23.8233 21.4563 23.8232 21.4561 23.8232L21.4565 23.8234ZM21.456 23.8231L21.4561 23.8231L21.456 23.8231Z" fill="#4CAF4F" stroke="#4CAF4F" stroke-width="0.928093"/>
</svg>
