<svg width="34" height="34" viewBox="0 0 34 34" fill="none" xmlns="http://www.w3.org/2000/svg">
<path d="M4.13324 11.634V11.982H4.48127H29.5398H29.8878V11.634V10.0679C29.8878 9.28327 29.5761 8.53081 29.0213 7.97602C28.4666 7.42123 27.7141 7.10956 26.9295 7.10956H7.09154C6.30695 7.10956 5.55449 7.42123 4.9997 7.97602C4.44492 8.53081 4.13324 9.28327 4.13324 10.0679V11.634ZM29.8878 13.7222V13.3742H29.5398H4.48127H4.13324V13.7222V23.6412C4.13324 24.4258 4.44492 25.1783 4.9997 25.733C5.55449 26.2878 6.30695 26.5995 7.09154 26.5995H26.9295C27.7141 26.5995 28.4666 26.2878 29.0213 25.733C29.5761 25.1783 29.8878 24.4258 29.8878 23.6412V13.7222ZM2.7411 10.0679C2.7411 8.91405 3.19945 7.8075 4.01531 6.99163C4.83118 6.17577 5.93773 5.71742 7.09154 5.71742H26.9295C28.0833 5.71742 29.1899 6.17577 30.0057 6.99163C30.8216 7.8075 31.28 8.91405 31.28 10.0679V23.6412C31.28 24.795 30.8216 25.9016 30.0057 26.7174C29.1899 27.5333 28.0833 27.9916 26.9295 27.9916H7.09154C5.93773 27.9916 4.83118 27.5333 4.01531 26.7174C3.19945 25.9016 2.7411 24.795 2.7411 23.6412V10.0679ZM22.231 20.3349H25.3634C25.548 20.3349 25.725 20.4082 25.8556 20.5388C25.9861 20.6693 26.0594 20.8463 26.0594 21.0309C26.0594 21.2156 25.9861 21.3926 25.8556 21.5231C25.725 21.6537 25.548 21.727 25.3634 21.727H22.231C22.0464 21.727 21.8694 21.6537 21.7388 21.5231C21.6083 21.3926 21.535 21.2156 21.535 21.0309C21.535 20.8463 21.6083 20.6693 21.7388 20.5388C21.8694 20.4082 22.0464 20.3349 22.231 20.3349Z" fill="#4CAF4F" stroke="#4CAF4F" stroke-width="0.696069"/>
</svg>
