<svg width="35" height="34" viewBox="0 0 35 34" fill="none" xmlns="http://www.w3.org/2000/svg">
<g clip-path="url(#clip0_211_2332)">
<path d="M33.1461 27.0623L33.1461 27.0623C33.2774 26.9713 33.3892 26.8551 33.4752 26.7205L33.7685 26.9078L33.4752 26.7205C33.5611 26.5859 33.6195 26.4356 33.6468 26.2782C33.6741 26.1208 33.6699 25.9596 33.6344 25.8039L33.9737 25.7265L33.6344 25.8039C33.5988 25.6482 33.5327 25.5011 33.4398 25.3712L33.4383 25.369C32.1312 23.5111 30.3502 22.0372 28.2806 21.1006L27.7759 20.8722L28.2007 20.5167C29.4605 19.4622 30.3647 18.0451 30.7902 16.4582C31.2157 14.8714 31.1419 13.192 30.5787 11.6487C30.0155 10.1054 28.9903 8.77313 27.6428 7.83333C26.2953 6.89354 24.6908 6.39188 23.048 6.39665L23.0464 6.39666C22.3153 6.39544 21.5876 6.49639 20.8844 6.69658L20.8781 6.69836L20.8781 6.6983C20.7219 6.73964 20.5755 6.81163 20.4474 6.91008C20.3193 7.00854 20.2121 7.13149 20.132 7.27179C20.0519 7.41209 20.0004 7.56692 19.9807 7.72728C19.961 7.88764 19.9734 8.05031 20.0172 8.20584C20.0609 8.36136 20.1352 8.50663 20.2356 8.63317L19.963 8.84954L20.2356 8.63318C20.3361 8.75972 20.4607 8.86503 20.6022 8.94295L20.4344 9.24783L20.6022 8.94295C20.7438 9.02088 20.8994 9.06987 21.06 9.08708C21.2207 9.10429 21.3831 9.08937 21.5379 9.04319L21.5419 9.042L21.542 9.04202C22.0316 8.90233 22.5384 8.83194 23.0476 8.8329M33.1461 27.0623L23.047 9.18093M33.1461 27.0623L33.1421 27.0652C32.9389 27.2104 32.6953 27.2882 32.4455 27.2874C32.2502 27.2863 32.0579 27.2386 31.8847 27.1484C31.7115 27.0583 31.5622 26.9283 31.4492 26.7691M33.1461 27.0623L31.1649 26.9699M23.0476 8.8329L23.047 9.18093M23.0476 8.8329C23.0474 8.8329 23.0472 8.8329 23.047 8.8329V9.18093M23.0476 8.8329C24.5243 8.83307 25.9404 9.41974 26.9845 10.4639C28.0288 11.5082 28.6155 12.9246 28.6155 14.4015C28.6155 15.8783 28.0288 17.2947 26.9845 18.339C25.9402 19.3833 24.5238 19.97 23.047 19.97C22.7239 19.97 22.4141 20.0983 22.1856 20.3268C21.9572 20.5552 21.8288 20.8651 21.8288 21.1881C21.8288 21.5112 21.9572 21.821 22.1856 22.0495C22.4141 22.2779 22.7239 22.4063 23.047 22.4063H23.0474C24.6948 22.4081 26.3177 22.8053 27.7797 23.5645C29.2417 24.3237 30.5001 25.4226 31.4492 26.7691M23.047 9.18093C24.4315 9.18093 25.7594 9.73095 26.7384 10.71C27.7175 11.689 28.2675 13.0169 28.2675 14.4015C28.2675 15.786 27.7175 17.1139 26.7384 18.0929C25.7594 19.072 24.4315 19.622 23.047 19.622C22.6316 19.622 22.2332 19.787 21.9395 20.0807C21.6458 20.3744 21.4808 20.7728 21.4808 21.1881C21.4808 21.6035 21.6458 22.0019 21.9395 22.2956C22.2332 22.5893 22.6316 22.7543 23.047 22.7543C24.6387 22.756 26.2067 23.1398 27.6194 23.8734C29.032 24.6069 30.2479 25.6688 31.1649 26.9699M31.4492 26.7691C31.449 26.7689 31.4489 26.7687 31.4488 26.7685L31.1649 26.9699M31.4492 26.7691C31.4492 26.7692 31.4493 26.7693 31.4494 26.7693L31.1649 26.9699M17.5632 20.5172L17.1405 20.8729L17.6438 21.1006C19.7134 22.0372 21.4944 23.5111 22.8015 25.369L22.8065 25.3761L22.8118 25.3829C22.9133 25.513 22.9874 25.6624 23.0294 25.8219C23.0715 25.9815 23.0807 26.148 23.0565 26.3112C23.0323 26.4744 22.9751 26.6311 22.8886 26.7715C22.802 26.912 22.6878 27.0335 22.5528 27.1285C22.4179 27.2235 22.2651 27.2901 22.1036 27.3242C21.9422 27.3584 21.7755 27.3593 21.6136 27.3271C21.4518 27.2949 21.2982 27.2301 21.1621 27.1367C21.0261 27.0433 20.9104 26.9232 20.8222 26.7838L20.8177 26.7767L20.8129 26.7699C19.8657 25.4208 18.6077 24.3197 17.1451 23.5595C15.6826 22.7993 14.0585 22.4025 12.4102 22.4025C10.7618 22.4025 9.13774 22.7993 7.67517 23.5595C6.21261 24.3197 4.95457 25.4208 4.0074 26.7699L4.00663 26.771C3.89529 26.9309 3.74683 27.0614 3.57399 27.1514C3.40114 27.2413 3.20907 27.288 3.01422 27.2874L3.01209 27.2874C2.76219 27.2883 2.51836 27.2105 2.31506 27.0652L2.31339 27.064C2.04987 26.878 1.8709 26.5951 1.81571 26.2773C1.76054 25.9596 1.83359 25.633 2.01884 25.369C3.32594 23.5111 5.10689 22.0372 7.17651 21.1006L7.67982 20.8729L7.25707 20.5172C6.00064 19.4602 5.09962 18.0425 4.67616 16.4562C4.25271 14.8698 4.3273 13.1916 4.88983 11.6491C5.45235 10.1066 6.47561 8.77439 7.82085 7.83306C9.1661 6.89174 10.7683 6.38685 12.4102 6.38685C14.052 6.38685 15.6542 6.89174 16.9995 7.83306C18.3447 8.77439 19.368 10.1066 19.9305 11.6491C20.493 13.1916 20.5676 14.8698 20.1442 16.4562C19.7207 18.0425 18.8197 19.4602 17.5632 20.5172ZM7.78007 11.3077C7.16819 12.2235 6.8416 13.3001 6.8416 14.4015C6.8416 15.8783 7.42829 17.2947 8.47259 18.339C9.5169 19.3833 10.9333 19.97 12.4102 19.97C13.5115 19.97 14.5881 19.6434 15.5039 19.0315C16.4196 18.4197 17.1334 17.55 17.5548 16.5324C17.9763 15.5149 18.0866 14.3953 17.8717 13.3151C17.6569 12.2349 17.1265 11.2427 16.3477 10.4639C15.5689 9.68511 14.5767 9.15476 13.4965 8.93989C12.4163 8.72503 11.2967 8.83531 10.2792 9.25678C9.26164 9.67825 8.39195 10.392 7.78007 11.3077Z" fill="#4CAF4F" stroke="#4CAF4F" stroke-width="0.696069"/>
</g>
<defs>
<clipPath id="clip0_211_2332">
<rect width="33.4113" height="33.4113" fill="white" transform="translate(0.924805 0.306152)"/>
</clipPath>
</defs>
</svg>
