<svg width="134" height="22" viewBox="0 0 134 22" fill="none" xmlns="http://www.w3.org/2000/svg">
<path d="M17.0185 12.0322L12.3793 19.9777L7.74004 12.0322H17.0185ZM18.2614 11.3221H6.49219L12.3793 21.3831L18.2614 11.3221Z" fill="white"/>
<path d="M25.0844 2.14975L29.7236 10.0953H20.4451L25.0844 2.14975ZM25.0844 0.729492L19.1973 10.7905H30.9715L25.0844 0.729492Z" fill="white"/>
<path d="M0.851562 0.729492L5.78769 9.62848L11.1817 0.952948L0.851562 0.729492Z" fill="#4CAF4F"/>
<path d="M12.3791 1.50897L17.5568 10.3583H7.19141L12.3791 1.50897Z" fill="#4CAF4F"/>
<path d="M18.8902 12.2904L24.0728 21.3831H13.4609L18.7291 12.2904H18.8902Z" fill="#4CAF4F"/>
<path d="M20.0122 11.7391L25.0842 20.6927L30.2266 11.7391H20.0122Z" fill="#4CAF4F"/>
<path d="M52.5137 2.16571V19.69H49.3135L41.6894 8.6603H41.561V19.69H37.856V2.16571H41.1075L48.6717 13.1868H48.8257V2.16571H52.5137Z" fill="white"/>
<path d="M61.4962 19.9467C60.1442 19.9467 58.9805 19.6729 58.005 19.1252C57.0352 18.5719 56.288 17.7904 55.7631 16.7807C55.2383 15.7653 54.9759 14.5645 54.9759 13.1783C54.9759 11.8263 55.2383 10.6398 55.7631 9.61866C56.288 8.59755 57.0267 7.80177 57.9793 7.23132C58.9377 6.66087 60.0615 6.37564 61.3507 6.37564C62.2178 6.37564 63.025 6.5154 63.7723 6.79492C64.5253 7.06874 65.1813 7.48232 65.7403 8.03565C66.3051 8.58899 66.7443 9.28494 67.0581 10.1235C67.3718 10.9564 67.5287 11.9318 67.5287 13.0499V14.0511H56.4306V11.7921H64.0974C64.0974 11.2673 63.9833 10.8023 63.7552 10.3973C63.527 9.9923 63.2104 9.6757 62.8054 9.44752C62.406 9.21364 61.9411 9.09669 61.4106 9.09669C60.8573 9.09669 60.3667 9.22504 59.9388 9.48175C59.5167 9.73275 59.1858 10.0722 58.9463 10.5C58.7067 10.9221 58.584 11.3928 58.5783 11.9119V14.0596C58.5783 14.7099 58.6981 15.2718 58.9377 15.7453C59.183 16.2188 59.5281 16.5839 59.9731 16.8406C60.418 17.0973 60.9457 17.2256 61.5561 17.2256C61.9611 17.2256 62.3319 17.1686 62.6684 17.0545C63.005 16.9404 63.2931 16.7693 63.5327 16.5411C63.7723 16.3129 63.9548 16.0334 64.0803 15.7025L67.4517 15.925C67.2805 16.735 66.9297 17.4424 66.3992 18.0471C65.8744 18.646 65.1955 19.1138 64.3627 19.4504C63.5355 19.7812 62.58 19.9467 61.4962 19.9467Z" fill="white"/>
<path d="M72.7184 6.54678L75.1314 11.1418L77.6043 6.54678H81.3436L77.5358 13.1184L81.4463 19.69H77.7241L75.1314 15.1463L72.5815 19.69H68.8165L72.7184 13.1184L68.9534 6.54678H72.7184Z" fill="white"/>
<path d="M88.9762 19.9467C87.63 19.9467 86.472 19.6615 85.5022 19.091C84.5381 18.5148 83.7965 17.7162 83.2774 16.6951C82.764 15.674 82.5073 14.4989 82.5073 13.1697C82.5073 11.8235 82.7669 10.6426 83.286 9.62721C83.8108 8.60611 84.5552 7.81033 85.5193 7.23987C86.4834 6.66372 87.63 6.37564 88.9591 6.37564C90.1057 6.37564 91.1097 6.58386 91.9711 7.00028C92.8325 7.41671 93.5142 8.00143 94.0162 8.75442C94.5182 9.50742 94.7948 10.3916 94.8462 11.407H91.4064C91.3094 10.751 91.0527 10.2233 90.6362 9.82402C90.2255 9.419 89.6864 9.21649 89.019 9.21649C88.4543 9.21649 87.9608 9.37051 87.5387 9.67855C87.1223 9.98089 86.7971 10.423 86.5632 11.0049C86.3293 11.5867 86.2124 12.2912 86.2124 13.1184C86.2124 13.9569 86.3265 14.67 86.5547 15.2576C86.7886 15.8451 87.1166 16.2929 87.5387 16.601C87.9608 16.909 88.4543 17.063 89.019 17.063C89.4354 17.063 89.8091 16.9775 90.14 16.8063C90.4765 16.6352 90.7532 16.3871 90.97 16.0619C91.1924 15.731 91.3379 15.3346 91.4064 14.8725H94.8462C94.7891 15.8765 94.5153 16.7607 94.0247 17.5251C93.5398 18.2838 92.8696 18.8771 92.0139 19.3049C91.1582 19.7328 90.1457 19.9467 88.9762 19.9467Z" fill="white"/>
<path d="M103.17 19.9467C101.818 19.9467 100.654 19.6729 99.6786 19.1252C98.7088 18.5719 97.9616 17.7904 97.4367 16.7807C96.9119 15.7653 96.6495 14.5645 96.6495 13.1783C96.6495 11.8263 96.9119 10.6398 97.4367 9.61866C97.9616 8.59755 98.7003 7.80177 99.6529 7.23132C100.611 6.66087 101.735 6.37564 103.024 6.37564C103.891 6.37564 104.699 6.5154 105.446 6.79492C106.199 7.06874 106.855 7.48232 107.414 8.03565C107.979 8.58899 108.418 9.28494 108.732 10.1235C109.045 10.9564 109.202 11.9318 109.202 13.0499V14.0511H98.1042V11.7921H105.771C105.771 11.2673 105.657 10.8023 105.429 10.3973C105.201 9.9923 104.884 9.6757 104.479 9.44752C104.08 9.21364 103.615 9.09669 103.084 9.09669C102.531 9.09669 102.04 9.22504 101.612 9.48175C101.19 9.73275 100.859 10.0722 100.62 10.5C100.38 10.9221 100.258 11.3928 100.252 11.9119V14.0596C100.252 14.7099 100.372 15.2718 100.611 15.7453C100.857 16.2188 101.202 16.5839 101.647 16.8406C102.092 17.0973 102.619 17.2256 103.23 17.2256C103.635 17.2256 104.005 17.1686 104.342 17.0545C104.679 16.9404 104.967 16.7693 105.206 16.5411C105.446 16.3129 105.628 16.0334 105.754 15.7025L109.125 15.925C108.954 16.735 108.603 17.4424 108.073 18.0471C107.548 18.646 106.869 19.1138 106.036 19.4504C105.209 19.7812 104.254 19.9467 103.17 19.9467Z" fill="white"/>
<path d="M115.226 12.0916V19.69H111.581V6.54678H115.055V8.86566H115.209C115.5 8.10126 115.988 7.49658 116.672 7.05162C117.357 6.60097 118.187 6.37564 119.162 6.37564C120.075 6.37564 120.871 6.5753 121.55 6.97462C122.229 7.37393 122.756 7.94438 123.133 8.68597C123.509 9.42185 123.697 10.3003 123.697 11.3215V19.69H120.052V11.9718C120.058 11.1674 119.853 10.5399 119.436 10.0893C119.02 9.63292 118.446 9.40474 117.716 9.40474C117.226 9.40474 116.792 9.51027 116.416 9.72134C116.045 9.93241 115.754 10.2404 115.543 10.6455C115.338 11.0448 115.232 11.5268 115.226 12.0916Z" fill="white"/>
<path d="M133.561 6.54678V9.28494H125.646V6.54678H133.561ZM127.443 3.39789H131.088V15.6512C131.088 15.9877 131.14 16.2502 131.242 16.4384C131.345 16.6209 131.488 16.7493 131.67 16.8235C131.858 16.8976 132.075 16.9347 132.321 16.9347C132.492 16.9347 132.663 16.9204 132.834 16.8919C133.005 16.8577 133.136 16.832 133.228 16.8149L133.801 19.5274C133.618 19.5844 133.362 19.65 133.031 19.7242C132.7 19.8041 132.298 19.8526 131.824 19.8697C130.946 19.9039 130.176 19.7869 129.514 19.5188C128.858 19.2507 128.347 18.8343 127.982 18.2696C127.617 17.7048 127.437 16.9917 127.443 16.1304V3.39789Z" fill="white"/>
</svg>
